<svg xmlns="http://www.w3.org/2000/svg" width="2000" height="196" viewBox="0 0 2000 196" version="1.1"><path d="M 83.677 2.627 C 53.969 9, 11.767 42.093, 22.251 50.794 C 33.994 60.539, 60.123 72.507, 62 69 C 63.841 65.560, 61.639 63.545, 46.533 54.849 C 29.331 44.946, 29.833 46.785, 41.274 35.582 C 57.358 19.831, 79.110 10, 97.876 10 C 103.856 10, 105.736 9.362, 107.063 6.882 C 110.159 1.098, 99.686 -0.808, 83.677 2.627 M 136.303 9.250 C 127.939 20.348, 119.162 47.500, 123.580 48.609 C 127.223 49.524, 128.162 48.243, 135.056 32.954 C 142.080 17.376, 141.035 18.054, 149.930 23.299 C 219.652 64.406, 194.757 176.084, 113.750 185.600 L 108 186.275 108 174.138 C 108 159.745, 105.880 155.443, 100.666 159.255 C 99.141 160.370, 98.980 162.404, 99.225 177.505 L 99.500 194.500 110 194.352 C 180.288 193.362, 223.771 108.712, 185.752 46.882 C 173.648 27.197, 141.319 2.594, 136.303 9.250 M 237.718 14.138 C 230.298 18.290, 230.411 177.939, 237.838 181.913 C 245.292 185.903, 245.500 183.626, 245.500 98 C 245.500 11.854, 245.317 9.885, 237.718 14.138 M 721.755 28.143 C 650.614 35.428, 644.373 150.983, 714.340 165.435 C 738.147 170.353, 761.035 162.018, 773.206 144 C 774.837 141.587, 774.897 141.924, 774.948 153.750 L 775 166 783.500 166 L 792 166 792 133.500 L 792 101 763.500 101 L 735 101 735 109 L 735 117 753.608 117 C 772.217 117, 772.217 117, 771.536 119.750 C 760.700 163.551, 696.991 159.162, 685.374 113.814 C 671.421 59.350, 736.953 18.120, 765.097 63.656 C 767.206 67.070, 767.206 67.070, 776.853 66.785 L 786.500 66.500 786.790 58.250 C 787.081 50, 787.081 50, 782.040 50 C 779.268 50, 777 49.560, 777 49.022 C 777 47.120, 763.404 36.820, 756.472 33.470 C 746.007 28.413, 735.245 26.762, 721.755 28.143 M 1548.500 28.011 C 1505.201 33.105, 1479.503 81.237, 1496.279 125.819 C 1511.815 167.102, 1560.105 181.572, 1594.945 155.382 C 1602.865 149.429, 1615.997 131.461, 1613.834 129.537 C 1613.185 128.960, 1602.841 123.890, 1600.486 122.995 C 1598.312 122.168, 1597.820 122.571, 1595.017 127.470 C 1569.915 171.345, 1510.138 150.556, 1510.017 97.910 C 1509.908 49.936, 1561.889 26.456, 1590.012 61.777 C 1594.170 67, 1594.170 67, 1603.585 67 L 1613 67 1613 58.500 C 1613 50, 1613 50, 1608.421 50 C 1604.301 50, 1603.374 49.532, 1599.171 45.322 C 1590.057 36.194, 1577.523 29.677, 1566.835 28.508 C 1556.395 27.367, 1554.429 27.313, 1548.500 28.011 M 278.667 30.667 C 278.300 31.033, 278 34.633, 278 38.667 L 278 46 284.500 46 L 291 46 291 98 L 291 150 284.458 150 L 277.916 150 278.208 157.750 L 278.500 165.500 314.055 165.500 C 349.609 165.500, 349.609 165.500, 357.163 161.765 C 384.119 148.438, 387.743 111.827, 363.452 98.233 C 362.388 97.637, 361.738 96.985, 362.008 96.783 C 362.279 96.582, 364.381 95.213, 366.680 93.741 C 389.897 78.875, 378.967 39.215, 349.540 31.552 C 343.354 29.941, 280.181 29.152, 278.667 30.667 M 396 38 L 396 46 402.500 46 L 409 46 409 82.840 C 409 146.592, 421.467 167.215, 460 167.204 C 499.207 167.194, 512 146.245, 512 82.053 L 512 46 518.542 46 L 525.084 46 524.792 38.250 L 524.500 30.500 502.250 30.231 L 480 29.962 480 37.981 L 480 46 487.599 46 L 495.199 46 494.766 83.750 C 494.282 125.915, 493.702 129.913, 486.723 139.208 C 475.942 153.565, 446.244 153.608, 435.369 139.282 C 427.766 129.266, 427.575 127.991, 427.205 84.750 L 426.873 46 433.936 46 L 441 46 441 38 L 441 30 418.500 30 L 396 30 396 38 M 537 37.914 L 537 46 543.500 46 L 550 46 550 98 L 550 150 543.500 150 L 537 150 537 158.086 L 537 166.171 568.250 165.758 C 594.613 165.409, 600.360 165.068, 605 163.576 C 668.407 143.185, 668.407 52.926, 605 32.433 C 600.347 30.929, 594.689 30.592, 568.250 30.242 L 537 29.829 537 37.914 M 821 38 L 821 46 827.500 46 L 834 46 834 98 L 834 150 827.500 150 L 821 150 821 158 L 821 166 869.500 166 L 918 166 918 146.500 L 918 127 908.500 127 L 899 127 899 138.500 L 899 150 875.500 150 L 852 150 852 127.500 L 852 105 872 105 L 892 105 892 97 L 892 89 872 89 L 852 89 852 67.500 L 852 46 875.500 46 L 899 46 899 57.500 L 899 69 908.500 69 L 918 69 918 49.500 L 918 30 869.500 30 L 821 30 821 38 M 926.227 48.250 L 926.500 66.500 935.750 66.788 L 945 67.075 945 56.538 L 945 46 960 46 L 975 46 975 98 L 975 150 969 150 L 963 150 963 158 L 963 166 985 166 L 1007 166 1007 158 L 1007 150 1000 150 L 993 150 993 98 L 993 46 1010.465 46 L 1027.930 46 1028.215 56.250 L 1028.500 66.500 1037.750 66.788 L 1047 67.075 1047 48.538 L 1047 30 986.477 30 L 925.955 30 926.227 48.250 M 1094 48.538 L 1094 67.075 1103.250 66.788 L 1112.500 66.500 1112.785 56.250 L 1113.070 46 1128.035 46 L 1143 46 1143 98 L 1143 150 1136.500 150 L 1130 150 1130 158 L 1130 166 1152.500 166 L 1175 166 1175 158 L 1175 150 1168 150 L 1161 150 1161 98 L 1161 46 1178.500 46 L 1196 46 1196 56.538 L 1196 67.075 1205.250 66.788 L 1214.500 66.500 1214.773 48.250 L 1215.045 30 1154.523 30 L 1094 30 1094 48.538 M 1230.667 30.667 C 1230.300 31.033, 1230 34.633, 1230 38.667 L 1230 46 1236.500 46 L 1243 46 1243 98 L 1243 150 1236.458 150 L 1229.916 150 1230.208 157.750 L 1230.500 165.500 1252.750 165.769 L 1275 166.038 1275 158.019 L 1275 150 1268 150 L 1261 150 1261 126.365 L 1261 102.730 1273.329 103.205 C 1295.610 104.063, 1297.476 106.270, 1306.127 142 C 1308.857 153.275, 1311.326 163.287, 1311.613 164.250 C 1312.076 165.804, 1313.640 166, 1325.567 166 L 1339 166 1339 157 L 1339 148 1333.039 148 C 1327.077 148, 1327.077 148, 1326.106 144.250 C 1325.571 142.188, 1323.703 134.875, 1321.954 128 C 1318.329 113.753, 1315.302 107.409, 1309.723 102.369 C 1307.578 100.430, 1305.975 98.735, 1306.161 98.600 C 1306.347 98.466, 1308.551 97.183, 1311.058 95.749 C 1340.453 78.932, 1331.774 37.332, 1297.566 31.084 C 1291.158 29.913, 1231.790 29.543, 1230.667 30.667 M 1387.965 70.723 C 1380.087 93.150, 1370.624 120.050, 1366.936 130.500 L 1360.230 149.500 1354.115 149.798 L 1348 150.095 1348 158.048 L 1348 166 1370.500 166 L 1393 166 1393 158 L 1393 150 1386.076 150 L 1379.151 150 1384.163 135 L 1389.174 120 1414.955 120 L 1440.736 120 1445.495 133.750 C 1448.113 141.313, 1450.471 148.063, 1450.735 148.750 C 1451.083 149.658, 1449.682 150, 1445.607 150 L 1440 150 1440 158 L 1440 166 1462.500 166 L 1485 166 1485 158 L 1485 150 1478.083 150 C 1471.165 150, 1471.165 150, 1469.578 145.750 C 1468.705 143.412, 1459.257 116.525, 1448.584 86 L 1429.177 30.500 1415.733 30.223 L 1402.289 29.945 1387.965 70.723 M 1632 37.981 L 1632 46 1638.500 46 L 1645 46 1645 98 L 1645 150 1638.500 150 L 1632 150 1632 158 L 1632 166 1654 166 L 1676 166 1676 158 L 1676 150 1669.500 150 L 1663 150 1663 123.757 L 1663 97.514 1689.500 124 L 1716 150.486 1716 158.243 L 1716 166 1734.500 166 L 1753 166 1753 158 L 1753 150 1745.750 149.950 C 1736.741 149.887, 1681.167 98.386, 1685.500 94.115 C 1703.326 76.548, 1742.806 46, 1747.684 46 C 1753 46, 1753 46, 1753 38 L 1753 30 1737 30 L 1721 30 1721 37.905 L 1721 45.811 1693.325 69.655 C 1678.104 82.770, 1665.054 93.860, 1664.325 94.300 C 1663.239 94.955, 1663 90.667, 1663 70.550 L 1663 46 1670.042 46 L 1677.084 46 1676.792 38.250 L 1676.500 30.500 1654.250 30.231 L 1632 29.962 1632 37.981 M 1771 38 L 1771 46 1777.500 46 L 1784 46 1784 98 L 1784 150 1777.500 150 L 1771 150 1771 158 L 1771 166 1820 166 L 1869 166 1869 146.500 L 1869 127 1859.500 127 L 1850 127 1850 138.500 L 1850 150 1826 150 L 1802 150 1802 127.500 L 1802 105 1822.500 105 L 1843 105 1843 97 L 1843 89 1822.500 89 L 1802 89 1802 67.500 L 1802 46 1826 46 L 1850 46 1850 57.500 L 1850 69 1859.500 69 L 1869 69 1869 49.500 L 1869 30 1820 30 L 1771 30 1771 38 M 1886 38 L 1886 46 1892 46 L 1898 46 1898 98 L 1898 150 1892 150 L 1886 150 1886 158 L 1886 166 1908 166 L 1930 166 1930 158 L 1930 150 1923.500 150 L 1917 150 1917 126.363 L 1917 102.725 1928.750 103.212 C 1950.793 104.124, 1952.985 106.822, 1962.084 144.250 L 1967.372 166 1980.686 166 L 1994 166 1994 157 L 1994 148 1988.149 148 L 1982.298 148 1978.188 131.896 C 1973.411 113.180, 1971.166 108.030, 1965.416 102.597 L 1961.226 98.637 1965.145 96.698 C 1989.675 84.562, 1989.992 47.658, 1965.671 35.333 C 1956.632 30.753, 1950.035 30.036, 1916.750 30.017 L 1886 30 1886 38 M 310 68.016 L 310 90.198 327.250 89.848 C 352.322 89.340, 361.982 82.246, 359.420 66.222 C 356.997 51.070, 349.857 46.596, 327.417 46.167 L 310 45.835 310 68.016 M 568 98 L 568 150 579.451 150 C 614.246 150, 634.348 129.062, 632.734 94.500 C 631.274 63.261, 612.085 46, 578.816 46 L 568 46 568 98 M 1261 66.965 L 1261 88.165 1278.250 87.833 C 1302.743 87.360, 1309.443 82.891, 1309.389 67.061 C 1309.336 51.390, 1302.554 46.997, 1277.250 46.247 L 1261 45.765 1261 66.965 M 1405.098 73.836 C 1399.926 89.051, 1395.491 102.063, 1395.241 102.750 C 1394.886 103.724, 1399.253 104, 1415 104 C 1433.842 104, 1435.168 103.881, 1434.539 102.250 C 1434.168 101.287, 1429.801 88.800, 1424.835 74.500 C 1419.870 60.200, 1415.513 47.976, 1415.153 47.336 C 1414.794 46.696, 1410.269 58.621, 1405.098 73.836 M 1917 66.954 L 1917 88.169 1933.750 87.825 C 1958.317 87.322, 1964.500 83.134, 1964.500 67 C 1964.500 51.080, 1958.186 46.867, 1933.305 46.186 L 1917 45.740 1917 66.954 M 100.750 49.080 C 99.394 49.870, 99 51.438, 99 56.050 C 99 62, 99 62, 95.443 62 C 66.390 62, 63.981 99.296, 92.824 102.560 L 99 103.258 99 114.129 L 99 125 86.479 125 C 73.957 125, 73.957 125, 72.765 127.617 C 70.556 132.464, 74.129 134, 87.611 134 L 99 134 99 139.965 C 99 144.831, 99.355 146.120, 100.928 146.961 C 105.109 149.199, 108 145.767, 108 138.566 C 108 134.062, 108.045 134, 111.318 134 C 138.791 134, 142.126 97.927, 115.040 93.735 L 108 92.645 108 81.822 L 108 71 118.300 71 C 129.227 71, 131 70.349, 131 66.335 C 131 62.934, 128.106 62, 117.566 62 L 108 62 108 57 C 108 50.148, 104.841 46.697, 100.750 49.080 M 89.686 72.017 C 76.559 75.957, 79.766 93, 93.635 93 L 99 93 99 82 C 99 69.971, 98.453 69.385, 89.686 72.017 M 9.225 74.250 C 0.116 85.412, 7.979 130.946, 22.758 152.619 C 37.193 173.789, 71.488 196.490, 74.534 186.892 C 75.654 183.363, 74.030 181.458, 67.461 178.596 C 31.412 162.892, 10.084 123.880, 15.958 84.394 C 16.951 77.723, 16.956 75.652, 15.984 74.481 C 14.485 72.675, 10.618 72.543, 9.225 74.250 M 108 114.139 L 108 125.279 113.208 124.662 C 128.736 122.823, 128.531 103, 112.984 103 L 108 103 108 114.139 M 310 128 L 310 150 325.750 149.994 C 351.135 149.985, 360 143.670, 360 125.594 C 360 110.859, 351.825 106, 327.032 106 L 310 106 310 128" stroke="none" fill="#fffcfc" fill-rule="evenodd"/><path d="" stroke="none" fill="#fcfcfc" fill-rule="evenodd"/></svg>